<svg width="90" height="90" viewBox="0 0 90 90" fill="none" xmlns="http://www.w3.org/2000/svg">
<circle cx="45" cy="45" r="45" fill="#E31528"/>
<path d="M40.5028 53.5V59.5C40.5028 60.3333 41.2028 62.1 44.0028 62.5C46.8028 62.9 48.1695 60.6667 48.5028 59.5V53.5C52 51.9844 57.0028 46.9844 57.0028 43.5C57.0028 37 57.512 28 44.0028 28C31.5 28 32.0028 37.5 32.0028 43.5C32.0028 48.3 37.6695 52.1667 40.5028 53.5Z" stroke="white" stroke-width="2"/>
<line x1="40" y1="55.25" x2="49" y2="55.25" stroke="white" stroke-width="1.5"/>
<path d="M44 31.5C40.5 31.5 35.5 32.7 35.5 37.5" stroke="white" stroke-linecap="round"/>
<line x1="32.0353" y1="52.7069" x2="28.7069" y2="56.2082" stroke="white" stroke-linecap="round"/>
<line x1="0.5" y1="-0.5" x2="5.33095" y2="-0.5" transform="matrix(-0.688987 -0.724774 -0.724774 0.688987 32.0175 29.2261)" stroke="white" stroke-linecap="round"/>
<line x1="23.5" y1="41.5" x2="28.331" y2="41.5" stroke="white" stroke-linecap="round"/>
<line x1="60.5" y1="41.5" x2="65.3309" y2="41.5" stroke="white" stroke-linecap="round"/>
<line x1="0.5" y1="-0.5" x2="5.33095" y2="-0.5" transform="matrix(0.688987 0.724774 0.724774 -0.688987 56 52)" stroke="white" stroke-linecap="round"/>
<line x1="55.9821" y1="28.5193" x2="59.3106" y2="25.0179" stroke="white" stroke-linecap="round"/>
<line x1="44.5" y1="24.3309" x2="44.5" y2="19.5" stroke="white" stroke-linecap="round"/>
</svg>
