<svg width="90" height="90" viewBox="0 0 90 90" fill="none" xmlns="http://www.w3.org/2000/svg">
<circle cx="45" cy="45" r="45" fill="#E31528"/>
<path d="M62.8 51C62.8 55.8601 58.8601 59.8 54 59.8C49.1399 59.8 45.2 55.8601 45.2 51C45.2 46.1399 49.1399 42.2 54 42.2C58.8601 42.2 62.8 46.1399 62.8 51Z" fill="white"/>
<path d="M59.1333 51C59.1333 53.835 56.835 56.1333 54 56.1333C51.1649 56.1333 48.8666 53.835 48.8666 51C48.8666 48.1649 51.1649 45.8666 54 45.8666C56.835 45.8666 59.1333 48.1649 59.1333 51Z" fill="#E31528"/>
<path d="M52.5334 40H55.4667V42.9333H52.5334V40Z" fill="white"/>
<path d="M58.5258 57.4742L60.6 59.5484L62.6742 57.4742L60.6 55.4L58.5258 57.4742Z" fill="white"/>
<path d="M58.5258 44.4L60.6 42.3258L62.6742 44.4L60.6 46.4742L58.5258 44.4Z" fill="white"/>
<path d="M52.5334 62H55.4667V59.0667H52.5334V62Z" fill="white"/>
<path d="M62.0666 52.4666H65V49.5333H62.0666V52.4666Z" fill="white"/>
<path d="M43 52.4666H45.9333V49.5333H43V52.4666Z" fill="white"/>
<path d="M49.3484 44.2742L47.2742 42.2L45.2 44.2742L47.2742 46.3484L49.3484 44.2742Z" fill="white"/>
<path d="M49.3484 57.6L47.2742 59.6742L45.2 57.6L47.2742 55.5258L49.3484 57.6Z" fill="white"/>
<path d="M49.2679 41L39.2679 27C30.7679 37 17.6679 58.2 33.2679 63C38.0679 64.2 42.9345 63.5 44.7678 63C45.6905 62.8333 47.8821 62.1 49.2679 60.5" stroke="white" stroke-width="3" stroke-linecap="round"/>
<path d="M31.5 52C31 54.5 31.8 59.3 39 58.5" stroke="white" stroke-width="3" stroke-linecap="round"/>
</svg>
